<?xml version="1.0" encoding="utf-8"?>
<!-- Generator: Adobe Illustrator 24.0.1, SVG Export Plug-In . SVG Version: 6.00 Build 0)  -->
<svg version="1.1" id="ContentFusion" xmlns="http://www.w3.org/2000/svg" xmlns:xlink="http://www.w3.org/1999/xlink" x="0px"
	 y="0px" viewBox="0 0 50 50" style="enable-background:new 0 0 50 50;" xml:space="preserve">
<style type="text/css">
	.st0{fill:url(#Pillow_1_);stroke:#AF1A03;stroke-width:0.75;}
	.st1{opacity:0.45;fill:#FFFFFF;stroke:#FFFFFF;stroke-width:2;stroke-linejoin:round;stroke-opacity:0;enable-background:new    ;}
	.st2{fill:#FFFFFF;}
</style>
<linearGradient id="Pillow_1_" gradientUnits="userSpaceOnUse" x1="25" y1="-755.5501" x2="25" y2="-707.4499" gradientTransform="matrix(1 0 0 -1 0 -706.5)">
	<stop  offset="0" style="stop-color:#BB2712"/>
	<stop  offset="1" style="stop-color:#DE4F33"/>
</linearGradient>
<path id="Pillow" class="st0" d="M10.8,1h28.4c5.4,0,9.8,4.4,9.8,9.8v28.4c0,5.4-4.4,9.8-9.8,9.8H10.8C5.4,49,1,44.6,1,39.2V10.8
	C1,5.4,5.4,1,10.8,1z"/>
<path id="Page_1_" class="st1" d="M7.1,10.2h25.3c1,0,3.4,2,3.4,5.6v21.9c0,4.3,1.9,5.1,1.9,5.1h-26c-0.6,0-1.9-0.9-1.9-5.3V15.8
	C9.9,12.1,7.1,10.2,7.1,10.2z"/>
<path id="Page" class="st1" d="M12.2,7.2h25.3c1.4,0,3.4,2,3.4,5.7v21.8c0,4.3,1.9,5.1,1.9,5.1H17.1c0,0-1.9-0.9-1.9-5.3V12.8
	C15.1,9.1,12.2,7.2,12.2,7.2z"/>
<polygon id="WhiteStroke" class="st2" points="16.8,37.7 16.8,12.3 34.1,12.3 34.1,18.1 23.2,18.1 23.2,22.3 32.2,22.3 32.2,28 
	23.2,28 23.2,37.7 "/>
<polygon id="F" points="17.4,37.1 17.4,12.9 33.5,12.9 33.5,17.5 22.6,17.5 22.6,22.9 31.6,22.9 31.6,27.4 22.6,27.4 22.6,37.1 "/>
</svg>
